<?xml version="1.0" encoding="UTF-8"?><svg id="Layer_1" xmlns="http://www.w3.org/2000/svg" width="1000" height="1000" viewBox="0 0 1000 1000"><defs><style>.cls-1{fill:none;}.cls-2{fill:#fff;}.cls-3{fill:#4c9c2e;}</style></defs><circle class="cls-2" cx="500" cy="500" r="263.4"/><g><path class="cls-3" d="M500,150c-193.3,0-350,156.7-350,350s156.7,350,350,350,350-156.7,350-350S693.3,150,500,150Zm0,599.46c-137.77,0-249.46-111.69-249.46-249.46s111.69-249.46,249.46-249.46,249.46,111.69,249.46,249.46-111.69,249.46-249.46,249.46Z"/><g><path class="cls-2" d="M736.76,662.65c.75-1.09,1.7-1.9,2.87-2.45,1.17-.55,2.41-.77,3.72-.67,1.31,.1,2.5,.52,3.59,1.26,1.12,.77,1.95,1.73,2.47,2.89,.53,1.16,.75,2.38,.66,3.67-.09,1.29-.5,2.48-1.25,3.56-.77,1.12-1.73,1.95-2.89,2.47-1.16,.53-2.38,.76-3.66,.71-1.28-.05-2.49-.47-3.61-1.24-1.09-.75-1.9-1.72-2.45-2.92-.55-1.2-.79-2.44-.72-3.71,.07-1.27,.5-2.47,1.26-3.59Z"/><path class="cls-2" d="M668.83,714.8c3.18-2.49,6.32-4.01,9.44-4.56,3.12-.55,6.1-.2,8.94,1.03,2.84,1.23,5.47,3.23,7.88,6.01,1.27,1.54,2.6,3.2,3.98,4.96,1.39,1.77,2.69,3.47,3.92,5.1,2.13,3,3.44,6.02,3.95,9.06,.51,3.03,.11,6-1.19,8.9-1.3,2.9-3.52,5.58-6.67,8.05-2.5,1.96-4.96,3.31-7.37,4.06-2.42,.74-4.65,1.04-6.7,.89-2.05-.15-3.83-.58-5.35-1.3-1.51-.72-2.64-1.51-3.37-2.37-.29-.29-.4-.62-.34-.98,.06-.37,.27-.69,.62-.97l3.16-2.48c.36-.28,.67-.41,.95-.4,.27,.02,.62,.15,1.04,.39,1.05,.68,2.29,1.17,3.72,1.49,1.43,.32,3,.29,4.69-.09s3.49-1.31,5.38-2.79c2.86-2.24,4.55-4.81,5.07-7.7,.53-2.9-.52-6.16-3.16-9.81-2.39-3.26-4.88-6.44-7.48-9.53-2.95-3.46-5.9-5.28-8.87-5.46-2.97-.18-5.86,.84-8.68,3.05-1.89,1.49-3.3,3.16-4.22,5.04-.92,1.88-1.24,3.87-.96,5.99,.28,2.12,1.3,4.3,3.06,6.55l1.77,2.25,8.03-6.3c.36-.28,.74-.4,1.16-.35,.41,.05,.77,.27,1.08,.66l1.34,1.71c.31,.39,.44,.8,.39,1.21-.05,.41-.25,.76-.61,1.04l-12.1,9.5c-.39,.31-.79,.43-1.18,.37-.4-.06-.75-.29-1.06-.68l-4.04-5.14c-2.3-2.93-3.7-5.95-4.22-9.06-.51-3.12-.1-6.17,1.25-9.16,1.35-2.99,3.59-5.72,6.73-8.18Z"/><path class="cls-2" d="M645.61,732.44c.44-.24,.85-.3,1.23-.17,.38,.13,.68,.39,.9,.79l21.45,38.94c.24,.44,.31,.85,.22,1.24-.1,.39-.36,.7-.8,.94l-16.34,9c-2.98,1.64-5.68,2.5-8.11,2.56-2.42,.07-4.54-.49-6.36-1.67-1.81-1.18-3.29-2.8-4.43-4.86-.9-1.63-1.4-3.18-1.51-4.65-.11-1.47,.03-2.79,.42-3.96s.85-2.17,1.39-2.98c-1.97,.1-4.03-.37-6.18-1.42-2.15-1.04-3.9-2.77-5.23-5.2-1.2-2.19-1.81-4.47-1.83-6.84s.66-4.65,2.03-6.83c1.37-2.18,3.48-4.05,6.34-5.63l16.81-9.26Zm-1.81,7.29l-11.57,6.37c-2.54,1.4-4.13,3.18-4.75,5.34-.63,2.16-.38,4.25,.74,6.28,1.16,2.11,2.81,3.46,4.96,4.07,2.15,.61,4.49,.21,7.04-1.19l11.57-6.37-7.98-14.49Zm10.61,19.26l-10.97,6.04c-2.54,1.4-4.15,3.05-4.82,4.95-.67,1.89-.44,3.86,.68,5.88,1.12,2.03,2.63,3.22,4.53,3.57,1.9,.35,4.13-.17,6.67-1.58l10.97-6.04-7.06-12.82Z"/><path class="cls-2" d="M605.83,752.58c.46-.19,.87-.2,1.24-.03,.36,.17,.63,.46,.81,.88l16.94,41.17c.17,.42,.19,.82,.05,1.19-.14,.38-.44,.66-.9,.85l-3.34,1.37c-.46,.19-.88,.2-1.24,.03s-.63-.46-.8-.88l-16.94-41.17c-.17-.42-.19-.82-.05-1.19,.14-.38,.44-.66,.9-.85l3.34-1.37Z"/><path class="cls-2" d="M589.23,759.2c.48-.14,.89-.11,1.24,.1s.58,.53,.71,.96l12.58,42.63c.14,.48,.12,.9-.06,1.26-.18,.36-.5,.61-.98,.75l-26.64,7.86c-.48,.14-.9,.11-1.27-.09-.37-.2-.62-.54-.76-1.02l-.77-2.61c-.14-.48-.11-.89,.1-1.24,.21-.34,.55-.59,1.03-.73l21.81-6.44-4.49-15.21-20.5,6.05c-.48,.14-.9,.11-1.27-.09-.37-.2-.62-.54-.76-1.02l-.77-2.61c-.13-.44-.09-.84,.11-1.2,.2-.37,.54-.62,1.02-.76l20.5-6.05-5.2-17.63c-.13-.44-.09-.84,.11-1.2,.2-.37,.54-.62,1.02-.76l3.27-.96Z"/><path class="cls-2" d="M499.79,787.26c1.32,0,2.53,.33,3.64,.99,1.11,.66,2,1.56,2.65,2.69,.66,1.13,.99,2.36,.99,3.68,0,1.36-.33,2.59-.99,3.68-.66,1.09-1.54,1.96-2.66,2.62-1.11,.66-2.33,.98-3.64,.98s-2.59-.33-3.68-.99c-1.09-.66-1.97-1.53-2.65-2.62-.68-1.09-1.02-2.31-1.02-3.68,0-1.32,.34-2.54,1.02-3.68,.68-1.13,1.57-2.03,2.66-2.69,1.09-.66,2.31-.98,3.68-.98Z"/><path class="cls-2" d="M434.25,766.48c.48,.15,.81,.44,1.01,.86,.2,.42,.23,.85,.09,1.28l-13.44,42.16c-.15,.47-.43,.82-.83,1.02-.4,.21-.84,.23-1.31,.08l-6.87-2.19c-.73-.23-1.21-.57-1.43-.99-.22-.43-.35-.74-.38-.94l-7.89-29.95-7.82,24.52c-.15,.47-.43,.82-.83,1.02-.4,.21-.84,.23-1.31,.08l-7.78-2.48c-.47-.15-.82-.43-1.02-.83-.21-.4-.23-.84-.08-1.31l13.42-42.09c.15-.48,.43-.83,.84-1.05,.41-.23,.85-.27,1.32-.12l6.94,2.21c.69,.22,1.14,.55,1.36,1,.21,.45,.34,.75,.39,.91l8.17,29.04,7.53-23.61c.14-.43,.41-.76,.82-.99,.41-.23,.85-.27,1.32-.12l7.78,2.48Z"/><path class="cls-2" d="M373.86,742.32c3.71,1.92,6.62,4.2,8.73,6.83,2.11,2.63,3.3,5.56,3.57,8.79,.27,3.23-.47,6.72-2.21,10.47-.86,1.75-1.74,3.51-2.65,5.26-.91,1.75-1.83,3.48-2.77,5.19-2.04,3.54-4.48,6.15-7.32,7.82-2.84,1.67-5.96,2.42-9.36,2.23-3.41-.18-6.92-1.22-10.55-3.1-3.66-1.9-6.54-4.19-8.63-6.86-2.09-2.67-3.28-5.65-3.56-8.94-.29-3.29,.45-6.78,2.21-10.47,.82-1.77,1.68-3.54,2.59-5.29,.91-1.75,1.85-3.47,2.83-5.16,2.02-3.6,4.44-6.22,7.26-7.85,2.82-1.63,5.91-2.34,9.27-2.13,3.37,.21,6.9,1.28,10.61,3.2Zm-4.52,8.7c-2.13-1.11-4.21-1.37-6.23-.78-2.02,.59-3.8,2.27-5.34,5.05-1,1.73-1.91,3.38-2.72,4.95-.82,1.57-1.62,3.22-2.42,4.96-.9,1.94-1.35,3.66-1.34,5.17,0,1.51,.41,2.83,1.2,3.96,.8,1.13,1.9,2.06,3.31,2.79,1.37,.71,2.74,1.07,4.12,1.07s2.7-.43,3.96-1.28c1.26-.85,2.42-2.21,3.49-4.06,.92-1.67,1.79-3.29,2.6-4.86,.82-1.57,1.66-3.25,2.54-5.05,1.34-2.88,1.67-5.32,.99-7.31-.68-1.99-2.07-3.53-4.16-4.61Z"/><path class="cls-2" d="M348.08,728.61c.4,.3,.62,.69,.66,1.15,.05,.46-.07,.87-.34,1.24l-26.82,35.19c-.3,.4-.68,.63-1.12,.69-.44,.06-.87-.06-1.26-.36l-14.08-10.73c-3.54-2.69-6.12-5.56-7.74-8.6-1.62-3.03-2.27-6.15-1.94-9.35,.33-3.2,1.66-6.45,4-9.74,1.18-1.62,2.22-3.02,3.12-4.21,.91-1.19,1.97-2.55,3.19-4.07,2.7-3.25,5.53-5.48,8.49-6.71,2.96-1.22,6.06-1.44,9.31-.65,3.25,.79,6.64,2.54,10.18,5.23l14.35,10.93Zm-14.34,1.4l-5.68-4.33c-1.55-1.18-3.03-1.92-4.43-2.22-1.4-.3-2.76-.12-4.08,.53-1.32,.65-2.65,1.81-3.97,3.47-.87,.99-1.63,1.9-2.28,2.71-.65,.82-1.28,1.65-1.9,2.49-.61,.84-1.27,1.8-1.97,2.86-1.8,2.51-2.53,4.79-2.18,6.85,.34,2.06,1.71,4,4.09,5.81l5.41,4.13,17-22.31Z"/><path class="cls-2" d="M311.16,699.01c.34,.36,.5,.78,.47,1.24-.03,.47-.21,.85-.54,1.16l-32.22,30.33c-.36,.34-.77,.51-1.22,.49s-.84-.2-1.19-.57l-21.79-23.15c-.34-.36-.51-.77-.49-1.22,.01-.45,.2-.84,.57-1.19l4.66-4.39c.36-.34,.77-.51,1.22-.49,.45,.01,.84,.2,1.19,.57l14.88,15.81,6.69-6.3-13.86-14.72c-.34-.36-.5-.78-.47-1.24,.03-.46,.23-.87,.59-1.21l4.31-4.06c.33-.31,.73-.47,1.19-.47,.47,0,.87,.18,1.21,.54l13.86,14.72,6.89-6.49-15.26-16.21c-.34-.36-.51-.77-.49-1.22,.01-.45,.2-.84,.57-1.19l4.66-4.39c.33-.31,.73-.47,1.19-.47,.47,0,.87,.18,1.21,.54l22.16,23.54Z"/><path class="cls-2" d="M244.43,631.01c.6,1.17,.86,2.4,.78,3.69-.08,1.29-.47,2.49-1.18,3.59-.71,1.1-1.65,1.95-2.82,2.55-1.21,.62-2.45,.89-3.72,.8-1.27-.09-2.45-.48-3.54-1.17-1.09-.69-1.94-1.62-2.54-2.79-.62-1.21-.89-2.45-.8-3.72,.09-1.27,.46-2.45,1.12-3.56,.66-1.1,1.6-1.96,2.81-2.58,1.17-.6,2.42-.86,3.74-.77s2.52,.47,3.6,1.14c1.08,.67,1.93,1.61,2.55,2.82Z"/><path class="cls-2" d="M231.52,550.56c.75,3.97,.65,7.46-.3,10.48-.95,3.02-2.63,5.51-5.03,7.47-2.4,1.96-5.39,3.37-8.97,4.23-1.95,.42-4.03,.83-6.24,1.25-2.21,.42-4.32,.8-6.33,1.13-3.65,.51-6.93,.29-9.86-.66-2.93-.94-5.38-2.66-7.35-5.15-1.97-2.49-3.33-5.7-4.08-9.62-.59-3.12-.66-5.93-.21-8.41,.45-2.49,1.22-4.61,2.29-6.36,1.08-1.75,2.28-3.13,3.61-4.15,1.33-1.01,2.55-1.65,3.66-1.91,.39-.12,.74-.07,1.03,.15,.29,.22,.49,.55,.57,1l.75,3.94c.08,.45,.06,.79-.08,1.02-.14,.23-.42,.48-.83,.75-1.08,.62-2.09,1.5-3.04,2.62-.94,1.12-1.63,2.53-2.08,4.2-.44,1.68-.44,3.7,0,6.06,.68,3.57,2.18,6.25,4.51,8.05,2.33,1.8,5.72,2.37,10.16,1.71,3.99-.62,7.96-1.37,11.9-2.26,4.42-1.02,7.4-2.81,8.92-5.36,1.53-2.55,1.95-5.59,1.29-9.11-.45-2.36-1.29-4.39-2.54-6.07-1.24-1.68-2.87-2.89-4.88-3.61s-4.42-.82-7.23-.29l-2.81,.53,1.9,10.03c.08,.45,.01,.84-.22,1.19s-.6,.56-1.09,.66l-2.14,.41c-.49,.09-.91,.02-1.25-.21-.34-.24-.56-.57-.64-1.02l-2.87-15.11c-.09-.49-.02-.9,.22-1.22,.24-.32,.6-.53,1.1-.62l6.42-1.22c3.66-.69,6.99-.55,9.99,.43,3,.98,5.52,2.75,7.56,5.32,2.04,2.57,3.42,5.82,4.17,9.74Z"/><path class="cls-2" d="M226.54,521.84c.01,.5-.13,.89-.41,1.17-.29,.28-.66,.43-1.11,.44l-44.44,1.09c-.5,.01-.9-.11-1.2-.38-.3-.26-.46-.65-.47-1.15l-.46-18.65c-.08-3.4,.4-6.2,1.46-8.38,1.06-2.18,2.53-3.81,4.41-4.88s4-1.63,6.36-1.69c1.86-.05,3.47,.22,4.82,.8,1.35,.58,2.46,1.31,3.32,2.2,.86,.89,1.53,1.76,2,2.61,.82-1.79,2.19-3.4,4.1-4.83,1.92-1.43,4.26-2.18,7.03-2.25,2.5-.06,4.8,.45,6.92,1.53,2.11,1.08,3.82,2.73,5.13,4.95s1.99,4.96,2.07,8.22l.47,19.19Zm-27.62-4.43l-.31-12.52c-.07-2.9-.79-5.09-2.17-6.55s-3.22-2.17-5.53-2.11c-2.31,.06-4.06,.85-5.25,2.38-1.19,1.53-1.75,3.74-1.68,6.65l.31,12.52,14.63-.36Zm21.98-.54l-.32-13.2c-.07-2.9-.92-5.13-2.55-6.68-1.63-1.55-3.6-2.29-5.91-2.24-2.4,.06-4.37,.9-5.9,2.53-1.53,1.63-2.25,3.89-2.18,6.8l.32,13.2,16.54-.41Z"/><path class="cls-2" d="M227.02,477.25c-.04,.5-.23,.87-.54,1.11-.32,.24-.7,.35-1.16,.31l-44.34-4.01c-.45-.04-.81-.21-1.08-.51-.27-.3-.38-.69-.34-1.19l.32-3.59c.04-.5,.23-.87,.54-1.11,.32-.24,.7-.35,1.16-.31l44.34,4.01c.45,.04,.81,.21,1.08,.51,.27,.3,.38,.7,.34,1.19l-.33,3.59Z"/><path class="cls-2" d="M228.82,459.48c-.1,.49-.32,.84-.66,1.05s-.74,.27-1.18,.18l-43.61-8.6c-.49-.1-.85-.31-1.09-.63-.24-.33-.31-.73-.21-1.22l5.37-27.25c.1-.49,.32-.85,.66-1.08s.76-.3,1.25-.2l2.67,.53c.49,.1,.84,.31,1.05,.66,.21,.34,.27,.76,.17,1.25l-4.4,22.31,15.56,3.07,4.13-20.97c.1-.49,.32-.85,.66-1.08,.35-.23,.77-.3,1.25-.2l2.67,.53c.45,.09,.78,.31,1.02,.65s.3,.76,.2,1.25l-4.13,20.97,18.03,3.56c.45,.09,.79,.3,1.02,.65,.23,.35,.3,.76,.2,1.25l-.66,3.34Z"/><path class="cls-2" d="M245.33,367.22c-.61,1.17-1.46,2.09-2.56,2.78-1.1,.68-2.3,1.05-3.61,1.11-1.31,.06-2.55-.21-3.72-.82-1.21-.63-2.14-1.48-2.81-2.57-.66-1.09-1.03-2.27-1.1-3.56-.07-1.29,.2-2.52,.8-3.69,.63-1.21,1.49-2.14,2.57-2.81,1.09-.66,2.27-1.05,3.55-1.15,1.28-.1,2.52,.16,3.73,.79,1.17,.61,2.1,1.47,2.79,2.6,.69,1.13,1.08,2.33,1.16,3.59,.08,1.27-.19,2.51-.82,3.72Z"/><path class="cls-2" d="M293.95,318.61c-.35,.35-.76,.52-1.23,.5s-.86-.19-1.18-.51l-31.21-31.37c-.35-.35-.53-.76-.53-1.21,0-.45,.18-.85,.53-1.2l5.11-5.09c.55-.54,1.06-.82,1.54-.82,.48,0,.82,.03,1.01,.1l30.21,6.82-18.15-18.24c-.35-.35-.53-.76-.53-1.21,0-.45,.18-.85,.53-1.2l5.79-5.76c.35-.35,.76-.53,1.2-.53,.45,0,.85,.18,1.2,.53l31.16,31.32c.35,.36,.53,.76,.55,1.23,.01,.47-.15,.87-.51,1.23l-5.16,5.14c-.51,.51-1.02,.76-1.52,.74-.5-.02-.83-.04-.99-.07l-29.54-6.14,17.48,17.57c.32,.32,.49,.72,.5,1.18,.01,.47-.15,.87-.51,1.23l-5.79,5.76Z"/><path class="cls-2" d="M343.25,276.25c-3.42,2.39-6.79,3.92-10.1,4.57-3.31,.65-6.46,.35-9.44-.91-2.99-1.26-5.74-3.53-8.25-6.81-1.16-1.57-2.3-3.17-3.43-4.79-1.13-1.62-2.24-3.24-3.32-4.86-2.19-3.45-3.37-6.82-3.54-10.11-.17-3.29,.62-6.4,2.36-9.33,1.74-2.93,4.29-5.57,7.63-7.91,3.38-2.37,6.74-3.86,10.08-4.47,3.34-.62,6.53-.29,9.58,.99,3.05,1.27,5.8,3.54,8.25,6.81,1.19,1.55,2.35,3.13,3.49,4.75,1.13,1.62,2.22,3.25,3.26,4.9,2.25,3.46,3.45,6.82,3.59,10.07,.14,3.25-.66,6.32-2.41,9.2-1.75,2.88-4.34,5.52-7.76,7.91Zm-5.62-8.03c1.97-1.38,3.16-3.1,3.58-5.16,.41-2.06-.25-4.42-2-7.08-1.07-1.69-2.11-3.26-3.13-4.71-1.01-1.45-2.1-2.93-3.27-4.44-1.3-1.7-2.62-2.89-3.96-3.59-1.34-.69-2.7-.95-4.07-.77-1.37,.18-2.7,.73-4.01,1.64-1.26,.88-2.22,1.94-2.86,3.16s-.87,2.59-.7,4.1c.17,1.51,.83,3.17,1.98,4.97,1.05,1.59,2.09,3.11,3.1,4.56,1.01,1.45,2.11,2.98,3.29,4.59,1.93,2.53,3.94,3.95,6.01,4.27,2.08,.32,4.08-.2,6.02-1.55Z"/><path class="cls-2" d="M367.37,259.74c-.45,.21-.89,.23-1.33,.06-.43-.17-.75-.47-.94-.88l-18.8-40.05c-.21-.45-.24-.89-.09-1.31,.15-.42,.45-.74,.91-.95l16.02-7.52c4.02-1.89,7.76-2.85,11.2-2.89,3.44-.04,6.51,.83,9.19,2.6,2.69,1.77,4.95,4.46,6.79,8.05,.89,1.79,1.65,3.36,2.29,4.72,.64,1.36,1.35,2.93,2.14,4.71,1.63,3.9,2.3,7.44,2.02,10.63-.28,3.19-1.52,6.04-3.73,8.56-2.2,2.51-5.32,4.72-9.35,6.61l-16.33,7.67Zm5.38-13.36l6.47-3.04c1.77-.83,3.11-1.79,4.02-2.9,.91-1.11,1.38-2.39,1.42-3.86,.04-1.47-.38-3.18-1.24-5.13-.48-1.23-.93-2.32-1.35-3.28-.42-.95-.87-1.9-1.33-2.83-.47-.93-1.01-1.96-1.63-3.07-1.39-2.75-3.08-4.46-5.07-5.1-1.98-.65-4.33-.34-7.04,.94l-6.16,2.89,11.92,25.39Z"/><path class="cls-2" d="M410.7,240.67c-.48,.14-.92,.08-1.32-.16-.4-.24-.66-.58-.78-1.01l-12.08-42.57c-.14-.48-.1-.91,.12-1.31,.22-.39,.57-.66,1.05-.79l30.58-8.68c.48-.14,.92-.09,1.31,.12,.39,.22,.66,.57,.79,1.05l1.75,6.16c.14,.48,.09,.92-.12,1.31-.22,.39-.57,.66-1.05,.79l-20.89,5.93,2.51,8.84,19.45-5.52c.48-.14,.92-.08,1.32,.16s.67,.6,.8,1.08l1.62,5.7c.12,.44,.08,.86-.13,1.28-.21,.41-.56,.69-1.04,.83l-19.45,5.52,2.58,9.1,21.41-6.08c.48-.14,.92-.09,1.31,.12,.39,.22,.66,.57,.79,1.05l1.75,6.16c.12,.44,.08,.86-.13,1.28-.21,.41-.56,.69-1.04,.83l-31.11,8.83Z"/><path class="cls-2" d="M499.58,212.74c-1.32,0-2.53-.32-3.64-.98-1.11-.66-2-1.55-2.66-2.68-.66-1.13-.99-2.36-.99-3.67,0-1.36,.32-2.59,.98-3.68,.66-1.09,1.54-1.96,2.65-2.62,1.11-.66,2.32-.99,3.64-.99,1.36,0,2.59,.33,3.68,.98,1.09,.66,1.98,1.53,2.66,2.62,.68,1.09,1.03,2.31,1.03,3.67,0,1.32-.34,2.54-1.01,3.68-.68,1.14-1.56,2.03-2.65,2.69-1.09,.66-2.31,.99-3.67,.99Z"/><path class="cls-2" d="M575.09,237.33c-3.88-1.11-6.96-2.77-9.23-4.98-2.27-2.21-3.74-4.83-4.41-7.85-.67-3.02-.58-6.33,.26-9.91,.51-1.93,1.07-3.98,1.69-6.14,.62-2.16,1.23-4.21,1.84-6.16,1.19-3.48,2.86-6.32,5.03-8.51,2.16-2.19,4.8-3.6,7.91-4.25,3.11-.64,6.59-.41,10.43,.69,3.05,.87,5.59,2.07,7.61,3.6,2.02,1.52,3.57,3.16,4.65,4.91,1.08,1.75,1.77,3.45,2.08,5.09,.31,1.65,.33,3.02,.06,4.12-.07,.41-.27,.69-.6,.86-.33,.16-.72,.18-1.15,.06l-3.86-1.11c-.44-.13-.73-.3-.87-.53-.15-.23-.24-.59-.29-1.08-.07-1.25-.39-2.54-.97-3.89-.58-1.35-1.52-2.6-2.82-3.75-1.3-1.15-3.1-2.06-5.42-2.72-3.49-1-6.56-.87-9.21,.4-2.65,1.27-4.69,4.04-6.1,8.31-1.24,3.85-2.36,7.73-3.34,11.65-1.08,4.41-.82,7.87,.77,10.38,1.59,2.51,4.11,4.26,7.56,5.25,2.31,.66,4.5,.82,6.56,.47,2.06-.35,3.87-1.26,5.42-2.73s2.72-3.57,3.51-6.32l.79-2.75-9.82-2.81c-.44-.13-.76-.37-.96-.74-.2-.36-.24-.79-.1-1.27l.6-2.09c.14-.48,.39-.82,.75-1.02,.36-.2,.76-.24,1.2-.12l14.79,4.24c.48,.14,.81,.38,.99,.74,.18,.36,.2,.78,.06,1.26l-1.8,6.28c-1.03,3.58-2.65,6.49-4.88,8.73-2.23,2.24-4.94,3.69-8.15,4.35-3.21,.66-6.74,.44-10.57-.66Z"/><path class="cls-2" d="M602.99,245.8c-.45-.21-.74-.51-.86-.89-.12-.38-.08-.78,.11-1.19l18.92-40.22c.21-.45,.5-.75,.88-.9s.78-.12,1.24,.09l16.88,7.94c3.08,1.45,5.36,3.13,6.84,5.06,1.48,1.92,2.27,3.97,2.39,6.12s-.33,4.31-1.34,6.44c-.79,1.68-1.75,3-2.88,3.95-1.12,.95-2.28,1.61-3.45,1.99-1.18,.37-2.25,.58-3.23,.62,1.23,1.53,2.06,3.48,2.48,5.83,.42,2.36,.04,4.79-1.13,7.29-1.06,2.26-2.55,4.09-4.47,5.5-1.92,1.41-4.15,2.2-6.72,2.37-2.56,.17-5.32-.44-8.28-1.83l-17.37-8.17Zm6.97-2.82l11.95,5.62c2.63,1.24,5,1.47,7.11,.71,2.11-.76,3.66-2.19,4.65-4.28,1.02-2.18,1.15-4.31,.38-6.4-.77-2.09-2.47-3.76-5.1-4.99l-11.95-5.62-7.04,14.97Zm9.36-19.9l11.33,5.33c2.63,1.24,4.9,1.57,6.83,.99,1.92-.57,3.38-1.91,4.36-4,.99-2.09,1.06-4.01,.23-5.76-.83-1.75-2.56-3.24-5.19-4.47l-11.33-5.33-6.23,13.24Z"/><path class="cls-2" d="M642.66,266.19c-.42-.26-.68-.59-.75-.98-.08-.39,0-.79,.24-1.17l23.39-37.88c.24-.39,.55-.63,.94-.74,.39-.11,.79-.03,1.22,.23l3.07,1.9c.42,.26,.68,.59,.75,.98,.08,.39,0,.78-.24,1.17l-23.39,37.88c-.24,.39-.55,.63-.94,.74-.39,.11-.79,.03-1.22-.23l-3.07-1.9Z"/><path class="cls-2" d="M657.76,275.74c-.39-.31-.61-.66-.64-1.06-.04-.4,.09-.78,.36-1.14l27.17-35.18c.3-.4,.66-.62,1.05-.69,.4-.07,.79,.05,1.19,.36l21.98,16.98c.4,.31,.62,.66,.67,1.08,.05,.41-.07,.82-.38,1.21l-1.66,2.15c-.31,.4-.66,.61-1.06,.64-.4,.03-.8-.1-1.19-.4l-17.99-13.9-9.7,12.55,16.92,13.07c.4,.3,.62,.66,.67,1.08,.05,.41-.07,.82-.38,1.21l-1.66,2.16c-.28,.36-.62,.57-1.04,.62-.41,.05-.82-.07-1.21-.38l-16.91-13.07-11.24,14.54c-.28,.36-.62,.57-1.04,.62-.41,.05-.82-.07-1.21-.38l-2.69-2.08Z"/><path class="cls-2" d="M732.83,331.82c-.77-1.07-1.21-2.24-1.33-3.53-.12-1.29,.09-2.53,.63-3.73,.54-1.2,1.34-2.18,2.4-2.95,1.1-.8,2.29-1.25,3.56-1.35,1.27-.1,2.49,.1,3.68,.62,1.18,.52,2.16,1.31,2.93,2.38,.8,1.1,1.25,2.29,1.35,3.56,.1,1.27-.09,2.5-.57,3.69-.48,1.19-1.28,2.18-2.38,2.98-1.07,.77-2.26,1.21-3.58,1.32-1.32,.11-2.56-.08-3.73-.58-1.17-.5-2.15-1.3-2.95-2.4Z"/><path class="cls-2" d="M754.42,397.13c-.16-.47-.12-.92,.1-1.32,.22-.41,.55-.68,.98-.83l42.01-13.88c.47-.16,.91-.13,1.31,.07,.4,.2,.68,.54,.84,1.01l2.26,6.85c.24,.73,.26,1.31,.04,1.74-.22,.43-.4,.72-.54,.86l-19.61,23.97,24.43-8.07c.47-.16,.91-.13,1.31,.07,.4,.2,.68,.54,.84,1.01l2.56,7.75c.16,.47,.13,.91-.07,1.31-.2,.4-.54,.68-1.01,.84l-41.95,13.86c-.48,.16-.92,.14-1.35-.06-.42-.2-.71-.53-.87-1l-2.29-6.92c-.23-.69-.22-1.25,.02-1.69,.24-.44,.41-.72,.51-.85l18.7-23.67-23.53,7.77c-.43,.14-.86,.11-1.28-.08-.42-.2-.71-.53-.87-1l-2.56-7.76Z"/><path class="cls-2" d="M770.29,460.17c-.61-4.13-.47-7.82,.42-11.07,.89-3.25,2.57-5.93,5.04-8.04,2.46-2.11,5.72-3.56,9.78-4.34,1.92-.33,3.86-.64,5.81-.93,1.95-.29,3.9-.55,5.83-.8,4.07-.42,7.61,.03,10.63,1.35,3.02,1.32,5.45,3.41,7.3,6.28,1.85,2.87,3.07,6.32,3.67,10.36,.61,4.08,.44,7.76-.5,11.02-.94,3.26-2.66,5.97-5.16,8.13-2.5,2.16-5.76,3.61-9.78,4.34-1.92,.37-3.85,.71-5.8,1-1.95,.29-3.9,.53-5.84,.73-4.11,.47-7.64,.04-10.62-1.28s-5.36-3.41-7.16-6.27c-1.8-2.85-3-6.34-3.62-10.47Zm9.7-1.44c.35,2.38,1.36,4.21,3.02,5.5,1.66,1.29,4.07,1.75,7.22,1.37,1.99-.2,3.86-.43,5.61-.69,1.75-.26,3.56-.58,5.43-.94,2.1-.4,3.75-1.05,4.98-1.94,1.22-.89,2.06-1.99,2.51-3.3,.45-1.31,.56-2.74,.32-4.31-.23-1.53-.74-2.85-1.55-3.97-.81-1.12-1.93-1.94-3.36-2.46-1.43-.52-3.21-.67-5.33-.45-1.89,.24-3.71,.48-5.46,.74-1.75,.26-3.61,.56-5.58,.9-3.12,.6-5.29,1.76-6.5,3.48-1.21,1.72-1.65,3.74-1.3,6.08Z"/><path class="cls-2" d="M774.29,489.1c.01-.5,.19-.9,.54-1.21,.35-.31,.75-.46,1.2-.45l44.23,1.12c.5,.01,.9,.18,1.21,.51,.31,.33,.46,.74,.45,1.24l-.45,17.69c-.11,4.45-.92,8.21-2.43,11.31-1.51,3.09-3.66,5.44-6.44,7.05-2.79,1.61-6.2,2.43-10.24,2.46-2,0-3.74-.03-5.24-.06-1.5-.04-3.22-.1-5.17-.2-4.21-.29-7.68-1.27-10.41-2.95-2.73-1.68-4.72-4.07-5.98-7.17-1.26-3.1-1.84-6.87-1.72-11.31l.46-18.03Zm9.53,10.8l-.18,7.15c-.05,1.95,.22,3.58,.8,4.89,.58,1.31,1.52,2.31,2.82,3,1.3,.69,3.01,1.09,5.14,1.19,1.31,.12,2.49,.21,3.53,.26s2.09,.08,3.13,.08c1.04,0,2.2-.02,3.48-.08,3.09-.01,5.37-.76,6.83-2.24,1.47-1.48,2.24-3.72,2.31-6.72l.17-6.8-28.04-.71Z"/><path class="cls-2" d="M771.92,536.35c.09-.49,.34-.86,.73-1.11,.39-.25,.81-.33,1.26-.24l43.45,8.35c.49,.09,.86,.33,1.11,.7,.25,.37,.33,.8,.24,1.29l-6,31.22c-.09,.49-.33,.86-.7,1.11-.37,.25-.8,.33-1.29,.24l-6.28-1.21c-.49-.09-.86-.33-1.11-.7-.25-.37-.33-.8-.24-1.29l4.09-21.33-9.02-1.73-3.81,19.85c-.09,.49-.34,.86-.73,1.11-.39,.25-.84,.32-1.33,.23l-5.82-1.12c-.45-.09-.81-.32-1.08-.69-.27-.38-.36-.81-.27-1.3l3.81-19.85-9.29-1.78-4.2,21.86c-.09,.49-.33,.86-.7,1.11-.37,.25-.8,.33-1.29,.24l-6.28-1.21c-.45-.09-.8-.32-1.08-.69-.27-.38-.36-.81-.27-1.3l6.1-31.75Z"/></g><g><path class="cls-3" d="M451.06,480.67c0-64.23,31.35-119.81,124.61-119.81,0,64.36-42.34,119.81-124.61,119.81"/><path class="cls-3" d="M600.49,649.3c17.47,0,30.89-2.49,44.68-7.56,0-50.83-30.32-87.15-83.88-113.32-40.99-20.55-91.43-31.19-137.44-31.19,20.19-60.59,5.47-135.78-14.09-177.05-21.67,43.24-35.2,117.36-14.39,177.67-40.87,2.98-73.28,20.78-86.99,44.26-1.04,1.79-3.11,5.61-1.87,6.26,.98,.52,2.56-1.08,3.53-1.97,14.77-13.67,34.32-20.33,53.09-20.33,43.39,0,74.02,36.01,95.66,57.64,46.51,46.51,91.97,65.7,141.69,65.6"/></g><circle class="cls-1" cx="500" cy="500" r="249.46"/><circle class="cls-1" cx="500" cy="500" r="350"/></g></svg>